<svg width="1299" height="95" viewBox="0 0 1299 95" fill="none" xmlns="http://www.w3.org/2000/svg">
<g clip-path="url(#clip0)">
<path d="M57.512 77.128H23.712L17.264 92.728H0L32.448 19.928H49.088L81.64 92.728H63.96L57.512 77.128ZM52.208 64.336L40.664 36.464L29.12 64.336H52.208Z" fill="black"/>
<path d="M119.469 90.024C117.875 91.2026 115.899 92.104 113.541 92.728C111.253 93.2827 108.827 93.56 106.261 93.56C99.6052 93.56 94.4398 91.8613 90.7652 88.464C87.1599 85.0667 85.3572 80.0746 85.3572 73.488V50.504H76.7252V38.024H85.3572V24.4H101.581V38.024H115.517V50.504H101.581V73.28C101.581 75.6373 102.171 77.4747 103.349 78.792C104.597 80.04 106.331 80.664 108.549 80.664C111.115 80.664 113.299 79.9707 115.101 78.584L119.469 90.024Z" fill="black"/>
<path d="M258.334 35.944C265.337 35.944 270.884 38.024 274.974 42.184C279.134 46.2746 281.214 52.4453 281.214 60.696V92.728H264.99V63.192C264.99 58.7546 264.054 55.4613 262.182 53.312C260.38 51.0933 257.78 49.984 254.382 49.984C250.569 49.984 247.553 51.232 245.334 53.728C243.116 56.1547 242.006 59.7946 242.006 64.648V92.728H225.782V63.192C225.782 54.3866 222.246 49.984 215.174 49.984C211.43 49.984 208.449 51.232 206.23 53.728C204.012 56.1547 202.902 59.7946 202.902 64.648V92.728H186.678V36.776H202.174V43.224C204.254 40.8666 206.785 39.064 209.766 37.816C212.817 36.568 216.145 35.944 219.75 35.944C223.702 35.944 227.273 36.7413 230.462 38.336C233.652 39.8613 236.217 42.1146 238.158 45.096C240.446 42.184 243.324 39.9307 246.79 38.336C250.326 36.7413 254.174 35.944 258.334 35.944Z" fill="black"/>
<path d="M291.596 36.776H307.82V92.728H291.596V36.776Z" fill="black"/>
<path d="M345.758 93.56C339.795 93.56 334.422 92.3467 329.638 89.92C324.923 87.424 321.214 83.992 318.51 79.624C315.875 75.256 314.558 70.2986 314.558 64.752C314.558 59.2053 315.875 54.248 318.51 49.88C321.214 45.512 324.923 42.1146 329.638 39.688C334.422 37.192 339.795 35.944 345.758 35.944C351.651 35.944 356.782 37.192 361.15 39.688C365.587 42.1146 368.811 45.616 370.822 50.192L358.238 56.952C355.326 51.8213 351.131 49.256 345.654 49.256C341.424 49.256 337.923 50.6426 335.15 53.416C332.376 56.1893 330.99 59.968 330.99 64.752C330.99 69.536 332.376 73.3146 335.15 76.088C337.923 78.8613 341.424 80.248 345.654 80.248C351.2 80.248 355.395 77.6826 358.238 72.552L370.822 79.416C368.811 83.8533 365.587 87.32 361.15 89.816C356.782 92.312 351.651 93.56 345.758 93.56Z" fill="black"/>
<path fill-rule="evenodd" clip-rule="evenodd" d="M137.633 36.3006C139.483 41.2244 144.235 44.728 149.806 44.728C155.376 44.728 160.128 41.2244 161.979 36.3006C172.482 40.969 179.806 51.4932 179.806 63.728C179.806 80.2966 166.374 93.728 149.806 93.728C133.237 93.728 119.806 80.2966 119.806 63.728C119.806 51.4932 127.13 40.969 137.633 36.3006ZM141.39 34.9245C142.679 38.3171 145.961 40.728 149.806 40.728C153.65 40.728 156.932 38.3171 158.221 34.9245C155.551 34.1457 152.727 33.728 149.806 33.728C146.884 33.728 144.06 34.1457 141.39 34.9245ZM163.806 63.728C163.806 71.46 157.538 77.728 149.806 77.728C142.074 77.728 135.806 71.46 135.806 63.728C135.806 55.996 142.074 49.728 149.806 49.728C157.538 49.728 163.806 55.996 163.806 63.728Z" fill="black"/>
<path d="M143.442 38.092C139.927 34.5773 139.927 28.8788 143.442 25.3641C146.957 21.8493 152.655 21.8493 156.17 25.3641C157.784 26.978 158.657 29.0525 158.788 31.1645C158.943 33.6518 158.07 36.1912 156.17 38.092C152.655 41.6067 146.957 41.6067 143.442 38.092Z" fill="url(#paint0_linear)"/>
<path d="M415.806 19.928H448.878C456.782 19.928 463.75 21.4533 469.782 24.504C475.883 27.4853 480.598 31.7146 483.926 37.192C487.323 42.6693 489.022 49.048 489.022 56.328C489.022 63.608 487.323 69.9866 483.926 75.464C480.598 80.9413 475.883 85.2053 469.782 88.256C463.75 91.2373 456.782 92.728 448.878 92.728H415.806V19.928ZM448.046 78.896C455.326 78.896 461.115 76.8853 465.414 72.864C469.782 68.7733 471.966 63.2613 471.966 56.328C471.966 49.3946 469.782 43.9173 465.414 39.896C461.115 35.8053 455.326 33.76 448.046 33.76H432.654V78.896H448.046Z" fill="black"/>
<path d="M518.992 35.944C527.658 35.944 534.314 38.024 538.96 42.184C543.605 46.2746 545.928 52.48 545.928 60.8V92.728H530.744V85.76C527.693 90.96 522.008 93.56 513.688 93.56C509.389 93.56 505.645 92.832 502.456 91.376C499.336 89.92 496.944 87.9093 495.28 85.344C493.616 82.7786 492.784 79.8666 492.784 76.608C492.784 71.408 494.725 67.3173 498.608 64.336C502.56 61.3546 508.626 59.864 516.808 59.864H529.704C529.704 56.328 528.629 53.624 526.48 51.752C524.33 49.8106 521.106 48.84 516.808 48.84C513.826 48.84 510.88 49.3253 507.968 50.296C505.125 51.1973 502.698 52.4453 500.688 54.04L494.864 42.704C497.914 40.5546 501.554 38.8906 505.784 37.712C510.082 36.5333 514.485 35.944 518.992 35.944ZM517.744 82.64C520.517 82.64 522.978 82.016 525.128 80.768C527.277 79.4506 528.802 77.544 529.704 75.048V69.328H518.576C511.92 69.328 508.592 71.512 508.592 75.88C508.592 77.96 509.389 79.624 510.984 80.872C512.648 82.0506 514.901 82.64 517.744 82.64Z" fill="black"/>
<path d="M592.539 90.024C590.944 91.2026 588.968 92.104 586.611 92.728C584.323 93.2826 581.896 93.56 579.331 93.56C572.675 93.56 567.51 91.8613 563.835 88.464C560.23 85.0667 558.427 80.0746 558.427 73.488V50.504H549.795V38.024H558.427V24.4H574.651V38.024H588.587V50.504H574.651V73.28C574.651 75.6373 575.24 77.4747 576.419 78.792C577.667 80.04 579.4 80.664 581.619 80.664C584.184 80.664 586.368 79.9706 588.171 78.584L592.539 90.024Z" fill="black"/>
<path d="M620.054 35.944C628.721 35.944 635.377 38.024 640.022 42.184C644.668 46.2746 646.99 52.48 646.99 60.8V92.728H631.806V85.76C628.756 90.96 623.07 93.56 614.75 93.56C610.452 93.56 606.708 92.832 603.518 91.376C600.398 89.92 598.006 87.9093 596.342 85.344C594.678 82.7786 593.846 79.8666 593.846 76.608C593.846 71.408 595.788 67.3173 599.67 64.336C603.622 61.3546 609.689 59.864 617.87 59.864H630.766C630.766 56.328 629.692 53.624 627.542 51.752C625.393 49.8106 622.169 48.84 617.87 48.84C614.889 48.84 611.942 49.3253 609.03 50.296C606.188 51.1973 603.761 52.4453 601.75 54.04L595.926 42.704C598.977 40.5546 602.617 38.8906 606.846 37.712C611.145 36.5333 615.548 35.944 620.054 35.944ZM618.806 82.64C621.58 82.64 624.041 82.016 626.19 80.768C628.34 79.4506 629.865 77.544 630.766 75.048V69.328H619.638C612.982 69.328 609.654 71.512 609.654 75.88C609.654 77.96 610.452 79.624 612.046 80.872C613.71 82.0506 615.964 82.64 618.806 82.64Z" fill="black"/>
<path d="M1255.82 1H1180.18C1175.11 1 1171 5.10989 1171 10.1797V85.8203C1171 90.8901 1175.11 95 1180.18 95H1255.82C1260.89 95 1265 90.8901 1265 85.8203V10.1797C1265 5.10989 1260.89 1 1255.82 1Z" fill="#3178C6"/>
<path fill-rule="evenodd" clip-rule="evenodd" d="M1229.2 75.7227V84.9024C1230.69 85.6735 1232.5 86.2426 1234.52 86.6282C1236.54 87.0137 1238.75 87.1973 1240.95 87.1973C1243.15 87.1973 1245.17 86.9953 1247.19 86.5731C1249.21 86.1508 1250.86 85.4532 1252.33 84.5535C1253.82 83.5805 1255.09 82.3504 1255.82 80.6981C1256.55 79.0457 1257.12 77.2098 1257.12 74.8231C1257.12 73.1524 1256.87 71.702 1256.37 70.4168C1255.88 69.1317 1255.16 68.0301 1254.17 67.1121C1253.23 66.1391 1252.15 65.2762 1250.86 64.5418C1249.58 63.8075 1248.11 63.0364 1246.46 62.3387C1245.25 61.843 1244.25 61.3657 1243.15 60.8883C1242.2 60.411 1241.37 59.9336 1240.77 59.4563C1240.09 58.9606 1239.57 58.4465 1239.21 57.9141C1238.84 57.3633 1238.65 56.7575 1238.65 56.0782C1238.65 55.4539 1238.82 54.8848 1239.15 54.3707C1239.48 53.8567 1239.94 53.4344 1240.53 53.0672C1241.11 52.7 1241.85 52.4246 1242.73 52.2227C1243.59 52.0207 1244.55 51.9289 1245.67 51.9289C1246.44 51.9289 1247.25 51.9858 1248.05 52.1015C1248.9 52.2172 1249.76 52.3953 1250.62 52.6339C1251.49 52.8726 1252.33 53.1664 1253.19 53.5335C1254 53.9007 1254.76 54.323 1255.4 54.8003V46.1714C1254 45.639 1252.46 45.2351 1250.81 44.9781C1249.16 44.721 1247.32 44.5925 1245.12 44.5925C1242.91 44.5925 1240.89 44.8312 1238.87 45.2902C1236.86 45.7492 1235.2 46.4835 1233.73 47.4933C1232.25 48.4847 1231.16 49.6964 1230.25 51.3488C1229.38 52.891 1228.96 54.6535 1228.96 56.8566C1228.96 59.6105 1229.75 61.9972 1231.35 63.8332C1232.93 65.8527 1235.39 67.3214 1238.51 68.7902C1239.77 69.3042 1240.89 69.8183 1242 70.314C1243.1 70.8097 1244.02 71.3238 1244.75 71.8562C1245.54 72.3886 1246.16 72.9761 1246.59 73.6003C1247.04 74.2246 1247.28 74.9589 1247.28 75.8035C1247.28 76.391 1247.14 76.9417 1246.86 77.4558C1246.58 77.9699 1246.14 78.4105 1245.56 78.7777C1244.97 79.1449 1244.25 79.4386 1243.35 79.6589C1242.49 79.8609 1241.52 79.971 1240.23 79.971C1238.21 79.971 1236.19 79.6222 1234.36 78.9246C1232.34 78.2269 1230.5 77.1804 1228.85 75.8035L1229.2 75.7227ZM1213.78 53.1407H1225.53V45.6133H1192.66V53.1407H1204.41V86.7383H1213.78V53.1407Z" fill="white"/>
<path d="M757.439 54.144C761.599 55.4613 764.858 57.68 767.215 60.8C769.572 63.8507 770.751 67.6293 770.751 72.136C770.751 78.5147 768.255 83.4373 763.263 86.904C758.34 90.3013 751.13 92 741.631 92H703.983V19.2H739.551C748.426 19.2 755.22 20.8987 759.935 24.296C764.719 27.6933 767.111 32.304 767.111 38.128C767.111 41.664 766.244 44.8187 764.511 47.592C762.847 50.3653 760.49 52.5493 757.439 54.144ZM720.727 31.888V49.048H737.471C741.631 49.048 744.786 48.32 746.935 46.864C749.084 45.408 750.159 43.2587 750.159 40.416C750.159 37.5733 749.084 35.4587 746.935 34.072C744.786 32.616 741.631 31.888 737.471 31.888H720.727ZM740.383 79.312C744.82 79.312 748.148 78.584 750.367 77.128C752.655 75.672 753.799 73.4187 753.799 70.368C753.799 64.336 749.327 61.32 740.383 61.32H720.727V79.312H740.383ZM793.699 43.432C795.64 40.728 798.24 38.6827 801.499 37.296C804.827 35.9093 808.64 35.216 812.939 35.216V50.192C811.136 50.0533 809.923 49.984 809.299 49.984C804.653 49.984 801.013 51.3013 798.379 53.936C795.744 56.5013 794.427 60.384 794.427 65.584V92H778.203V36.048H793.699V43.432ZM844.542 92.832C838.648 92.832 833.344 91.6187 828.63 89.192C823.984 86.696 820.344 83.264 817.71 78.896C815.075 74.528 813.758 69.5707 813.758 64.024C813.758 58.4773 815.075 53.52 817.71 49.152C820.344 44.784 823.984 41.3867 828.63 38.96C833.344 36.464 838.648 35.216 844.542 35.216C850.435 35.216 855.704 36.464 860.35 38.96C864.995 41.3867 868.635 44.784 871.27 49.152C873.904 53.52 875.222 58.4773 875.222 64.024C875.222 69.5707 873.904 74.528 871.27 78.896C868.635 83.264 864.995 86.696 860.35 89.192C855.704 91.6187 850.435 92.832 844.542 92.832ZM844.542 79.52C848.702 79.52 852.099 78.1333 854.734 75.36C857.438 72.5173 858.79 68.7387 858.79 64.024C858.79 59.3093 857.438 55.5653 854.734 52.792C852.099 49.9493 848.702 48.528 844.542 48.528C840.382 48.528 836.95 49.9493 834.246 52.792C831.542 55.5653 830.19 59.3093 830.19 64.024C830.19 68.7387 831.542 72.5173 834.246 75.36C836.95 78.1333 840.382 79.52 844.542 79.52ZM970.239 36.048L949.959 92H934.359L921.775 57.264L908.775 92H893.175L872.999 36.048H888.287L901.495 73.904L915.223 36.048H928.951L942.263 73.904L955.887 36.048H970.239ZM991.632 92.832C986.987 92.832 982.446 92.2773 978.008 91.168C973.571 89.9893 970.035 88.5333 967.4 86.8L972.808 75.152C975.304 76.7467 978.32 78.064 981.856 79.104C985.392 80.0747 988.859 80.56 992.256 80.56C999.12 80.56 1002.55 78.8613 1002.55 75.464C1002.55 73.8693 1001.62 72.7253 999.744 72.032C997.872 71.3387 994.995 70.7493 991.112 70.264C986.536 69.5707 982.758 68.7733 979.776 67.872C976.795 66.9707 974.195 65.376 971.976 63.088C969.827 60.8 968.752 57.5413 968.752 53.312C968.752 49.776 969.758 46.656 971.768 43.952C973.848 41.1787 976.83 39.0293 980.712 37.504C984.664 35.9787 989.31 35.216 994.648 35.216C998.6 35.216 1002.52 35.6667 1006.4 36.568C1010.35 37.4 1013.61 38.5787 1016.18 40.104L1010.77 51.648C1005.85 48.8747 1000.47 47.488 994.648 47.488C991.182 47.488 988.582 47.9733 986.848 48.944C985.115 49.9147 984.248 51.1627 984.248 52.688C984.248 54.4213 985.184 55.6347 987.056 56.328C988.928 57.0213 991.91 57.68 996 58.304C1000.58 59.0667 1004.32 59.8987 1007.23 60.8C1010.14 61.632 1012.68 63.192 1014.82 65.48C1016.97 67.768 1018.05 70.9573 1018.05 75.048C1018.05 78.5147 1017.01 81.6 1014.93 84.304C1012.85 87.008 1009.8 89.1227 1005.78 90.648C1001.82 92.104 997.11 92.832 991.632 92.832ZM1078.71 64.232C1078.71 64.44 1078.6 65.896 1078.39 68.6H1036.07C1036.83 72.0667 1038.63 74.8053 1041.47 76.816C1044.32 78.8267 1047.85 79.832 1052.08 79.832C1054.99 79.832 1057.56 79.416 1059.78 78.584C1062.07 77.6827 1064.18 76.296 1066.12 74.424L1074.75 83.784C1069.49 89.816 1061.79 92.832 1051.67 92.832C1045.36 92.832 1039.78 91.6187 1034.92 89.192C1030.07 86.696 1026.33 83.264 1023.69 78.896C1021.06 74.528 1019.74 69.5707 1019.74 64.024C1019.74 58.5467 1021.02 53.624 1023.59 49.256C1026.22 44.8187 1029.79 41.3867 1034.3 38.96C1038.87 36.464 1043.97 35.216 1049.59 35.216C1055.06 35.216 1060.02 36.3947 1064.46 38.752C1068.9 41.1093 1072.36 44.5067 1074.86 48.944C1077.42 53.312 1078.71 58.408 1078.71 64.232ZM1049.69 47.488C1046.02 47.488 1042.93 48.528 1040.43 50.608C1037.94 52.688 1036.41 55.5307 1035.86 59.136H1063.42C1062.86 55.6 1061.34 52.792 1058.84 50.712C1056.35 48.5627 1053.3 47.488 1049.69 47.488ZM1100.84 43.432C1102.79 40.728 1105.39 38.6827 1108.64 37.296C1111.97 35.9093 1115.79 35.216 1120.08 35.216V50.192C1118.28 50.0533 1117.07 49.984 1116.44 49.984C1111.8 49.984 1108.16 51.3013 1105.52 53.936C1102.89 56.5013 1101.57 60.384 1101.57 65.584V92H1085.35V36.048H1100.84V43.432Z" fill="black"/>
</g>
<defs>
<linearGradient id="paint0_linear" x1="156.17" y1="38.092" x2="143.442" y2="25.3641" gradientUnits="userSpaceOnUse">
<stop stop-color="#033049"/>
<stop offset="1" stop-color="#00C2FF"/>
</linearGradient>
<clipPath id="clip0">
<rect width="1299" height="95" fill="white"/>
</clipPath>
</defs>
</svg>
