<svg width="1299" height="95" viewBox="0 0 1299 95" fill="none" xmlns="http://www.w3.org/2000/svg">
<g clip-path="url(#clip0)">
<path d="M26.264 89.728H27.6014L28.1123 88.492L34.0494 74.128H65.1746L71.1117 88.492L71.6226 89.728H72.96H90.64H93.7251L92.4658 86.9116L59.9138 14.1116L59.3845 12.928H58.088H41.448H40.1498L39.6212 14.1138L7.17324 86.9138L5.9189 89.728H9H26.264ZM129.658 86.6323L130.879 85.7295L130.338 84.3106L125.97 72.8706L125.011 70.3607L122.882 71.9987C121.473 73.0824 119.733 73.664 117.549 73.664C115.748 73.664 114.585 73.1767 113.803 72.4167C113.069 71.5727 112.581 70.2789 112.581 68.28V47.504H124.517H126.517V45.504V33.024V31.024H124.517H112.581V19.4V17.4H110.581H94.3572H92.3572V19.4V31.024H85.7252H83.7252V33.024V45.504V47.504H85.7252H92.3572V68.488C92.3572 75.4361 94.2674 81.0315 98.3936 84.9196L98.4005 84.9261L98.4075 84.9325C102.56 88.7715 108.272 90.56 115.261 90.56C117.971 90.56 120.557 90.2669 123.012 89.6717L123.033 89.6668L123.053 89.6614C125.6 88.9872 127.819 87.9913 129.658 86.6323ZM290.214 89.728H292.214V87.728V55.696C292.214 47.1417 290.058 40.3694 285.389 35.7701C280.85 31.1606 274.752 28.944 267.334 28.944C262.912 28.944 258.781 29.7933 254.968 31.5128L254.961 31.5159L254.955 31.519C252.017 32.8704 249.456 34.6684 247.287 36.9101C245.386 34.6401 243.066 32.8452 240.341 31.5392C236.849 29.7965 232.972 28.944 228.75 28.944C224.91 28.944 221.322 29.6097 218.009 30.9649L218.002 30.968L217.994 30.9711C216.251 31.7007 214.643 32.6075 213.174 33.6907V31.776V29.776H211.174H195.678H193.678V31.776V87.728V89.728H195.678H211.902H213.902V87.728V59.648C213.902 55.0608 214.955 51.9935 216.706 50.0775L216.716 50.0672L216.725 50.0567C218.516 48.0421 220.925 46.984 224.174 46.984C227.272 46.984 229.276 47.9264 230.571 49.5384C231.933 51.234 232.782 54.0044 232.782 58.192V87.728V89.728H234.782H251.006H253.006V87.728V59.648C253.006 55.0608 254.059 51.9935 255.81 50.0775L255.82 50.0672L255.829 50.0567C257.613 48.0505 260.051 46.984 263.382 46.984C266.304 46.984 268.28 47.9117 269.63 49.5732L269.652 49.5997L269.674 49.6255C271.094 51.2552 271.99 53.9809 271.99 58.192V87.728V89.728H273.99H290.214ZM300.596 29.776H298.596V31.776V87.728V89.728H300.596H316.82H318.82V87.728V31.776V29.776H316.82H300.596ZM337.702 86.6876L337.717 86.6957L337.733 86.7036C342.827 89.2878 348.516 90.56 354.758 90.56C360.937 90.56 366.419 89.2498 371.136 86.5558C375.924 83.8614 379.45 80.0826 381.643 75.2414L382.41 73.5496L380.779 72.6602L368.195 65.7962L366.451 64.8448L365.488 66.5827C364.202 68.9039 362.666 70.5475 360.916 71.6178C359.172 72.6846 357.107 73.248 354.654 73.248C350.909 73.248 347.931 72.0408 345.564 69.6738C343.245 67.355 341.99 64.1297 341.99 59.752C341.99 55.3743 343.245 52.149 345.564 49.8302C347.931 47.4632 350.909 46.256 354.654 46.256C359.346 46.256 362.908 48.3755 365.498 52.9392L366.463 54.6385L368.184 53.7139L380.768 46.9539L382.396 46.0793L381.653 44.3874C379.465 39.4077 375.937 35.5778 371.126 32.9423C366.411 30.2523 360.932 28.944 354.758 28.944C348.509 28.944 342.814 30.254 337.716 32.9129C332.693 35.4998 328.709 39.1423 325.809 43.8273L325.803 43.8371L325.797 43.847C322.958 48.5538 321.558 53.8741 321.558 59.752C321.558 65.6298 322.958 70.9502 325.797 75.657L325.803 75.6669L325.809 75.6767C328.708 80.3586 332.686 84.0321 337.702 86.6876ZM49.664 36.6906L58.2149 57.336H41.1131L49.664 36.6906Z" fill="black" stroke="white" stroke-width="4"/>
<mask id="path-2-outside-1" maskUnits="userSpaceOnUse" x="124.806" y="24.728" width="68" height="68" fill="black">
<rect fill="white" x="124.806" y="24.728" width="68" height="68"/>
<path fill-rule="evenodd" clip-rule="evenodd" d="M146.633 31.3006C148.483 36.2244 153.235 39.728 158.806 39.728C164.376 39.728 169.128 36.2244 170.979 31.3006C181.482 35.969 188.806 46.4932 188.806 58.728C188.806 75.2966 175.374 88.728 158.806 88.728C142.237 88.728 128.806 75.2966 128.806 58.728C128.806 46.4932 136.13 35.969 146.633 31.3006ZM150.39 29.9245C151.679 33.3171 154.961 35.728 158.806 35.728C162.65 35.728 165.932 33.3171 167.221 29.9245C164.551 29.1457 161.727 28.728 158.806 28.728C155.884 28.728 153.06 29.1457 150.39 29.9245ZM172.806 58.728C172.806 66.46 166.538 72.728 158.806 72.728C151.074 72.728 144.806 66.46 144.806 58.728C144.806 50.996 151.074 44.728 158.806 44.728C166.538 44.728 172.806 50.996 172.806 58.728Z"/>
</mask>
<path fill-rule="evenodd" clip-rule="evenodd" d="M146.633 31.3006C148.483 36.2244 153.235 39.728 158.806 39.728C164.376 39.728 169.128 36.2244 170.979 31.3006C181.482 35.969 188.806 46.4932 188.806 58.728C188.806 75.2966 175.374 88.728 158.806 88.728C142.237 88.728 128.806 75.2966 128.806 58.728C128.806 46.4932 136.13 35.969 146.633 31.3006ZM150.39 29.9245C151.679 33.3171 154.961 35.728 158.806 35.728C162.65 35.728 165.932 33.3171 167.221 29.9245C164.551 29.1457 161.727 28.728 158.806 28.728C155.884 28.728 153.06 29.1457 150.39 29.9245ZM172.806 58.728C172.806 66.46 166.538 72.728 158.806 72.728C151.074 72.728 144.806 66.46 144.806 58.728C144.806 50.996 151.074 44.728 158.806 44.728C166.538 44.728 172.806 50.996 172.806 58.728Z" fill="black"/>
<path d="M146.633 31.3006L150.377 29.8934L148.885 25.9223L145.008 27.6454L146.633 31.3006ZM170.979 31.3006L172.603 27.6454L168.727 25.9223L167.234 29.8934L170.979 31.3006ZM150.39 29.9245L149.27 26.0845L145.112 27.2972L146.651 31.3455L150.39 29.9245ZM167.221 29.9245L170.961 31.3455L172.499 27.2972L168.342 26.0845L167.221 29.9245ZM158.806 35.728C154.955 35.728 151.66 33.3085 150.377 29.8934L142.888 32.7077C145.306 39.1402 151.515 43.728 158.806 43.728V35.728ZM167.234 29.8934C165.951 33.3085 162.656 35.728 158.806 35.728V43.728C166.096 43.728 172.306 39.1402 174.723 32.7077L167.234 29.8934ZM192.806 58.728C192.806 44.8557 184.498 32.9325 172.603 27.6454L169.354 34.9557C178.465 39.0055 184.806 48.1307 184.806 58.728H192.806ZM158.806 92.728C177.583 92.728 192.806 77.5057 192.806 58.728H184.806C184.806 73.0874 173.165 84.728 158.806 84.728V92.728ZM124.806 58.728C124.806 77.5057 140.028 92.728 158.806 92.728V84.728C144.446 84.728 132.806 73.0874 132.806 58.728H124.806ZM145.008 27.6454C133.113 32.9325 124.806 44.8557 124.806 58.728H132.806C132.806 48.1307 139.146 39.0055 148.257 34.9557L145.008 27.6454ZM146.651 31.3455C148.511 36.2394 153.246 39.728 158.806 39.728V31.728C156.676 31.728 154.848 30.3948 154.129 28.5036L146.651 31.3455ZM158.806 39.728C164.366 39.728 169.101 36.2394 170.961 31.3455L163.482 28.5036C162.764 30.3948 160.935 31.728 158.806 31.728V39.728ZM168.342 26.0845C165.311 25.2006 162.11 24.728 158.806 24.728V32.728C161.344 32.728 163.791 33.0907 166.101 33.7645L168.342 26.0845ZM158.806 24.728C155.501 24.728 152.3 25.2006 149.27 26.0845L151.51 33.7645C153.82 33.0907 156.267 32.728 158.806 32.728V24.728ZM158.806 76.728C168.747 76.728 176.806 68.6692 176.806 58.728H168.806C168.806 64.2509 164.329 68.728 158.806 68.728V76.728ZM140.806 58.728C140.806 68.6692 148.865 76.728 158.806 76.728V68.728C153.283 68.728 148.806 64.2509 148.806 58.728H140.806ZM158.806 40.728C148.865 40.728 140.806 48.7869 140.806 58.728H148.806C148.806 53.2052 153.283 48.728 158.806 48.728V40.728ZM176.806 58.728C176.806 48.7869 168.747 40.728 158.806 40.728V48.728C164.329 48.728 168.806 53.2052 168.806 58.728H176.806Z" fill="white" mask="url(#path-2-outside-1)"/>
<path d="M151.028 18.9499C146.732 23.2456 146.732 30.2104 151.028 34.5062C155.323 38.802 162.288 38.802 166.584 34.5062C168.907 32.1829 169.974 29.0757 169.784 26.0401C169.623 23.4603 168.556 20.9215 166.584 18.9499C162.288 14.6541 155.323 14.6541 151.028 18.9499Z" fill="url(#paint0_linear)" stroke="white" stroke-width="4"/>
<path d="M424.806 12.928H422.806V14.928V87.728V89.728H424.806H457.878C466.036 89.728 473.316 88.1883 479.668 85.049L479.676 85.0448C486.089 81.8385 491.094 77.3267 494.63 71.5103C498.245 65.6786 500.022 58.9276 500.022 51.328C500.022 43.7284 498.245 36.9774 494.63 31.1457C491.094 25.3289 486.087 20.8502 479.672 17.713C473.319 14.5029 466.037 12.928 457.878 12.928H424.806ZM473.035 36.3448L473.047 36.3562L473.059 36.3674C476.946 39.9457 478.966 44.8511 478.966 51.328C478.966 57.804 476.946 62.7526 473.047 66.4042C469.201 70.001 463.944 71.896 457.046 71.896H443.654V30.76H457.046C463.935 30.76 469.188 32.6844 473.035 36.3448ZM534.166 48.2601C535.404 49.3385 536.238 50.8236 536.557 52.864H525.808C517.451 52.864 510.864 54.3743 506.403 57.7393L506.396 57.7445L506.389 57.7497C501.979 61.1361 499.784 65.8313 499.784 71.608C499.784 75.2263 500.713 78.5213 502.602 81.4324C504.495 84.3506 507.194 86.5943 510.61 88.1883L510.617 88.1919L510.625 88.1954C514.127 89.7941 518.166 90.56 522.688 90.56C528.932 90.56 534.044 89.15 537.744 86.137V87.728V89.728H539.744H554.928H556.928V87.728V55.8C556.928 47.1167 554.494 40.2772 549.287 35.6882C544.154 31.0949 536.955 28.944 527.992 28.944C523.308 28.944 518.728 29.5567 514.255 30.7832L514.247 30.7854C509.835 32.0148 505.979 33.7671 502.712 36.069L501.29 37.0708L502.085 38.6179L507.909 49.9539L509.022 52.1207L510.93 50.607C512.722 49.1856 514.924 48.042 517.572 47.2024L517.586 47.198L517.6 47.1933C520.314 46.2886 523.047 45.84 525.808 45.84C529.845 45.84 532.5 46.7561 534.139 48.2362L534.152 48.2483L534.166 48.2601ZM602.728 86.6323L603.949 85.7295L603.407 84.3106L599.039 72.8706L598.081 70.3606L595.952 71.9987C594.543 73.0824 592.803 73.664 590.619 73.664C588.818 73.664 587.655 73.1766 586.873 72.4166C586.139 71.5727 585.651 70.2788 585.651 68.28V47.504H597.587H599.587V45.504V33.024V31.024H597.587H585.651V19.4V17.4H583.651H567.427H565.427V19.4V31.024H558.795H556.795V33.024V45.504V47.504H558.795H565.427V68.488C565.427 75.4361 567.337 81.0315 571.463 84.9196L571.47 84.9261L571.477 84.9325C575.63 88.7715 581.341 90.56 588.331 90.56C591.041 90.56 593.627 90.2669 596.082 89.6717L596.103 89.6667L596.123 89.6614C598.67 88.9871 600.889 87.9913 602.728 86.6323ZM635.229 48.2601C636.467 49.3385 637.301 50.8236 637.62 52.864H626.87C618.514 52.864 611.927 54.3743 607.466 57.7393L607.459 57.7445L607.452 57.7497C603.042 61.1361 600.846 65.8313 600.846 71.608C600.846 75.2263 601.776 78.5213 603.664 81.4324C605.557 84.3506 608.257 86.5943 611.673 88.1883L611.68 88.1919L611.688 88.1954C615.19 89.7941 619.228 90.56 623.75 90.56C629.995 90.56 635.107 89.15 638.806 86.137V87.728V89.728H640.806H655.99H657.99V87.728V55.8C657.99 47.117 655.557 40.2776 650.351 35.6887C645.217 31.095 638.018 28.944 629.054 28.944C624.371 28.944 619.79 29.5567 615.317 30.7832L615.309 30.7854C610.898 32.0148 607.042 33.7671 603.774 36.069L602.353 37.0708L603.147 38.6179L608.971 49.9539L610.085 52.1207L611.993 50.607C613.785 49.1856 615.987 48.042 618.635 47.2024L618.649 47.198L618.663 47.1933C621.377 46.2886 624.11 45.84 626.87 45.84C630.908 45.84 633.563 46.7561 635.202 48.2362L635.215 48.2483L635.229 48.2601ZM533.102 74.0504C531.297 75.0936 529.197 75.64 526.744 75.64C524.184 75.64 522.394 75.1129 521.179 74.2673C520.109 73.4151 519.592 72.3474 519.592 70.88C519.592 69.2922 520.146 68.3197 521.185 67.6381C522.37 66.8601 524.403 66.328 527.576 66.328H536.704V69.6832C535.942 71.6087 534.745 73.0383 533.102 74.0504ZM634.165 74.0504C632.36 75.0936 630.259 75.64 627.806 75.64C625.247 75.64 623.457 75.113 622.242 74.2674C621.172 73.4152 620.654 72.3474 620.654 70.88C620.654 69.2922 621.209 68.3197 622.248 67.6381C623.433 66.8601 625.465 66.328 628.638 66.328H637.766V69.6832C637.005 71.6086 635.808 73.0382 634.165 74.0504Z" fill="black" stroke="white" stroke-width="4"/>
<path d="M1255.82 1H1180.18C1175.11 1 1171 5.10989 1171 10.1797V85.8203C1171 90.8901 1175.11 95 1180.18 95H1255.82C1260.89 95 1265 90.8901 1265 85.8203V10.1797C1265 5.10989 1260.89 1 1255.82 1Z" fill="#3178C6"/>
<path fill-rule="evenodd" clip-rule="evenodd" d="M1229.2 75.7227V84.9024C1230.69 85.6735 1232.5 86.2426 1234.52 86.6282C1236.54 87.0137 1238.75 87.1973 1240.95 87.1973C1243.15 87.1973 1245.17 86.9953 1247.19 86.5731C1249.21 86.1508 1250.86 85.4532 1252.33 84.5535C1253.82 83.5805 1255.09 82.3504 1255.82 80.6981C1256.55 79.0457 1257.12 77.2098 1257.12 74.8231C1257.12 73.1524 1256.87 71.702 1256.37 70.4168C1255.88 69.1317 1255.16 68.0301 1254.17 67.1121C1253.23 66.1391 1252.15 65.2762 1250.86 64.5418C1249.58 63.8075 1248.11 63.0364 1246.46 62.3387C1245.25 61.843 1244.25 61.3657 1243.15 60.8883C1242.2 60.411 1241.37 59.9336 1240.77 59.4563C1240.09 58.9606 1239.57 58.4465 1239.21 57.9141C1238.84 57.3633 1238.65 56.7575 1238.65 56.0782C1238.65 55.4539 1238.82 54.8848 1239.15 54.3707C1239.48 53.8567 1239.94 53.4344 1240.53 53.0672C1241.11 52.7 1241.85 52.4246 1242.73 52.2227C1243.59 52.0207 1244.55 51.9289 1245.67 51.9289C1246.44 51.9289 1247.25 51.9858 1248.05 52.1015C1248.9 52.2172 1249.76 52.3953 1250.62 52.6339C1251.49 52.8726 1252.33 53.1664 1253.19 53.5335C1254 53.9007 1254.76 54.323 1255.4 54.8003V46.1714C1254 45.639 1252.46 45.2351 1250.81 44.9781C1249.16 44.721 1247.32 44.5925 1245.12 44.5925C1242.91 44.5925 1240.89 44.8312 1238.87 45.2902C1236.86 45.7492 1235.2 46.4835 1233.73 47.4933C1232.25 48.4847 1231.16 49.6964 1230.25 51.3488C1229.38 52.891 1228.96 54.6535 1228.96 56.8566C1228.96 59.6105 1229.75 61.9972 1231.35 63.8332C1232.93 65.8527 1235.39 67.3214 1238.51 68.7902C1239.77 69.3042 1240.89 69.8183 1242 70.314C1243.1 70.8097 1244.02 71.3238 1244.75 71.8562C1245.54 72.3886 1246.16 72.9761 1246.59 73.6003C1247.04 74.2246 1247.28 74.9589 1247.28 75.8035C1247.28 76.391 1247.14 76.9417 1246.86 77.4558C1246.58 77.9699 1246.14 78.4105 1245.56 78.7777C1244.97 79.1449 1244.25 79.4386 1243.35 79.6589C1242.49 79.8609 1241.52 79.971 1240.23 79.971C1238.21 79.971 1236.19 79.6222 1234.36 78.9246C1232.34 78.2269 1230.5 77.1804 1228.85 75.8035L1229.2 75.7227ZM1213.78 53.1407H1225.53V45.6133H1192.66V53.1407H1204.41V86.7383H1213.78V53.1407Z" fill="white"/>
<path d="M766.439 49.144C770.599 50.4613 773.858 52.68 776.215 55.8C778.572 58.8507 779.751 62.6293 779.751 67.136C779.751 73.5147 777.255 78.4373 772.263 81.904C767.34 85.3013 760.13 87 750.631 87H712.983V14.2H748.551C757.426 14.2 764.22 15.8987 768.935 19.296C773.719 22.6933 776.111 27.304 776.111 33.128C776.111 36.664 775.244 39.8187 773.511 42.592C771.847 45.3653 769.49 47.5493 766.439 49.144ZM729.727 26.888V44.048H746.471C750.631 44.048 753.786 43.32 755.935 41.864C758.084 40.408 759.159 38.2587 759.159 35.416C759.159 32.5733 758.084 30.4587 755.935 29.072C753.786 27.616 750.631 26.888 746.471 26.888H729.727ZM749.383 74.312C753.82 74.312 757.148 73.584 759.367 72.128C761.655 70.672 762.799 68.4187 762.799 65.368C762.799 59.336 758.327 56.32 749.383 56.32H729.727V74.312H749.383ZM802.699 38.432C804.64 35.728 807.24 33.6827 810.499 32.296C813.827 30.9093 817.64 30.216 821.939 30.216V45.192C820.136 45.0533 818.923 44.984 818.299 44.984C813.653 44.984 810.013 46.3013 807.379 48.936C804.744 51.5013 803.427 55.384 803.427 60.584V87H787.203V31.048H802.699V38.432ZM853.542 87.832C847.648 87.832 842.344 86.6187 837.63 84.192C832.984 81.696 829.344 78.264 826.71 73.896C824.075 69.528 822.758 64.5707 822.758 59.024C822.758 53.4773 824.075 48.52 826.71 44.152C829.344 39.784 832.984 36.3867 837.63 33.96C842.344 31.464 847.648 30.216 853.542 30.216C859.435 30.216 864.704 31.464 869.35 33.96C873.995 36.3867 877.635 39.784 880.27 44.152C882.904 48.52 884.222 53.4773 884.222 59.024C884.222 64.5707 882.904 69.528 880.27 73.896C877.635 78.264 873.995 81.696 869.35 84.192C864.704 86.6187 859.435 87.832 853.542 87.832ZM853.542 74.52C857.702 74.52 861.099 73.1333 863.734 70.36C866.438 67.5173 867.79 63.7387 867.79 59.024C867.79 54.3093 866.438 50.5653 863.734 47.792C861.099 44.9493 857.702 43.528 853.542 43.528C849.382 43.528 845.95 44.9493 843.246 47.792C840.542 50.5653 839.19 54.3093 839.19 59.024C839.19 63.7387 840.542 67.5173 843.246 70.36C845.95 73.1333 849.382 74.52 853.542 74.52ZM979.239 31.048L958.959 87H943.359L930.775 52.264L917.775 87H902.175L881.999 31.048H897.287L910.495 68.904L924.223 31.048H937.951L951.263 68.904L964.887 31.048H979.239ZM1000.63 87.832C995.987 87.832 991.446 87.2773 987.008 86.168C982.571 84.9893 979.035 83.5333 976.4 81.8L981.808 70.152C984.304 71.7467 987.32 73.064 990.856 74.104C994.392 75.0747 997.859 75.56 1001.26 75.56C1008.12 75.56 1011.55 73.8613 1011.55 70.464C1011.55 68.8693 1010.62 67.7253 1008.74 67.032C1006.87 66.3387 1004 65.7493 1000.11 65.264C995.536 64.5707 991.758 63.7733 988.776 62.872C985.795 61.9707 983.195 60.376 980.976 58.088C978.827 55.8 977.752 52.5413 977.752 48.312C977.752 44.776 978.758 41.656 980.768 38.952C982.848 36.1787 985.83 34.0293 989.712 32.504C993.664 30.9787 998.31 30.216 1003.65 30.216C1007.6 30.216 1011.52 30.6667 1015.4 31.568C1019.35 32.4 1022.61 33.5787 1025.18 35.104L1019.77 46.648C1014.85 43.8747 1009.47 42.488 1003.65 42.488C1000.18 42.488 997.582 42.9733 995.848 43.944C994.115 44.9147 993.248 46.1627 993.248 47.688C993.248 49.4213 994.184 50.6347 996.056 51.328C997.928 52.0213 1000.91 52.68 1005 53.304C1009.58 54.0667 1013.32 54.8987 1016.23 55.8C1019.14 56.632 1021.68 58.192 1023.82 60.48C1025.97 62.768 1027.05 65.9573 1027.05 70.048C1027.05 73.5147 1026.01 76.6 1023.93 79.304C1021.85 82.008 1018.8 84.1227 1014.78 85.648C1010.82 87.104 1006.11 87.832 1000.63 87.832ZM1087.71 59.232C1087.71 59.44 1087.6 60.896 1087.39 63.6H1045.07C1045.83 67.0667 1047.63 69.8053 1050.47 71.816C1053.32 73.8267 1056.85 74.832 1061.08 74.832C1063.99 74.832 1066.56 74.416 1068.78 73.584C1071.07 72.6827 1073.18 71.296 1075.12 69.424L1083.75 78.784C1078.49 84.816 1070.79 87.832 1060.67 87.832C1054.36 87.832 1048.78 86.6187 1043.92 84.192C1039.07 81.696 1035.33 78.264 1032.69 73.896C1030.06 69.528 1028.74 64.5707 1028.74 59.024C1028.74 53.5467 1030.02 48.624 1032.59 44.256C1035.22 39.8187 1038.79 36.3867 1043.3 33.96C1047.87 31.464 1052.97 30.216 1058.59 30.216C1064.06 30.216 1069.02 31.3947 1073.46 33.752C1077.9 36.1093 1081.36 39.5067 1083.86 43.944C1086.42 48.312 1087.71 53.408 1087.71 59.232ZM1058.69 42.488C1055.02 42.488 1051.93 43.528 1049.43 45.608C1046.94 47.688 1045.41 50.5307 1044.86 54.136H1072.42C1071.86 50.6 1070.34 47.792 1067.84 45.712C1065.35 43.5627 1062.3 42.488 1058.69 42.488ZM1109.84 38.432C1111.79 35.728 1114.39 33.6827 1117.64 32.296C1120.97 30.9093 1124.79 30.216 1129.08 30.216V45.192C1127.28 45.0533 1126.07 44.984 1125.44 44.984C1120.8 44.984 1117.16 46.3013 1114.52 48.936C1111.89 51.5013 1110.57 55.384 1110.57 60.584V87H1094.35V31.048H1109.84V38.432Z" fill="black"/>
<path d="M766.439 49.144L764.586 45.5991L756.063 50.0541L765.232 52.9574L766.439 49.144ZM776.215 55.8L773.024 58.2113L773.037 58.2286L773.05 58.2458L776.215 55.8ZM772.263 81.904L774.535 85.1961L774.545 85.1895L772.263 81.904ZM712.983 87H708.983V91H712.983V87ZM712.983 14.2V10.2H708.983V14.2H712.983ZM768.935 19.296L766.597 22.5412L766.608 22.5493L766.619 22.5573L768.935 19.296ZM773.511 42.592L770.119 40.472L770.1 40.5028L770.081 40.534L773.511 42.592ZM729.727 26.888V22.888H725.727V26.888H729.727ZM729.727 44.048H725.727V48.048H729.727V44.048ZM755.935 29.072L753.692 32.3837L753.729 32.4088L753.767 32.4332L755.935 29.072ZM759.367 72.128L757.22 68.7534L757.196 68.7684L757.172 68.7838L759.367 72.128ZM729.727 56.32V52.32H725.727V56.32H729.727ZM729.727 74.312H725.727V78.312H729.727V74.312ZM765.232 52.9574C768.697 54.0546 771.224 55.8289 773.024 58.2113L779.407 53.3887C776.492 49.5311 772.502 46.868 767.647 45.3306L765.232 52.9574ZM773.05 58.2458C774.778 60.4821 775.751 63.3589 775.751 67.136H783.751C783.751 61.8998 782.367 57.2192 779.38 53.3542L773.05 58.2458ZM775.751 67.136C775.751 72.2811 773.835 75.9422 769.982 78.6185L774.545 85.1895C780.675 80.9324 783.751 74.7482 783.751 67.136H775.751ZM769.991 78.6119C766.024 81.3496 759.757 83 750.631 83V91C760.502 91 768.657 89.2531 774.535 85.1961L769.991 78.6119ZM750.631 83H712.983V91H750.631V83ZM716.983 87V14.2H708.983V87H716.983ZM712.983 18.2H748.551V10.2H712.983V18.2ZM748.551 18.2C757.002 18.2 762.837 19.8318 766.597 22.5412L771.274 16.0508C765.604 11.9656 757.849 10.2 748.551 10.2V18.2ZM766.619 22.5573C770.356 25.2111 772.111 28.6112 772.111 33.128H780.111C780.111 25.9968 777.082 20.1755 771.251 16.0347L766.619 22.5573ZM772.111 33.128C772.111 35.9776 771.423 38.386 770.119 40.472L776.903 44.712C779.066 41.2513 780.111 37.3504 780.111 33.128H772.111ZM770.081 40.534C768.821 42.635 767.028 44.3226 764.586 45.5991L768.292 52.6889C771.952 50.776 774.874 48.0957 776.941 44.65L770.081 40.534ZM725.727 26.888V44.048H733.727V26.888H725.727ZM729.727 48.048H746.471V40.048H729.727V48.048ZM746.471 48.048C750.99 48.048 755.078 47.2763 758.178 45.1757L753.692 38.5523C752.494 39.3637 750.272 40.048 746.471 40.048V48.048ZM758.178 45.1757C761.544 42.8959 763.159 39.4371 763.159 35.416H755.159C755.159 37.0802 754.625 37.9201 753.692 38.5523L758.178 45.1757ZM763.159 35.416C763.159 31.3937 761.537 27.9262 758.104 25.7108L753.767 32.4332C754.631 32.9911 755.159 33.753 755.159 35.416H763.159ZM758.178 25.7603C755.078 23.6597 750.99 22.888 746.471 22.888V30.888C750.272 30.888 752.494 31.5723 753.692 32.3837L758.178 25.7603ZM746.471 22.888H729.727V30.888H746.471V22.888ZM749.383 78.312C754.131 78.312 758.386 77.5562 761.562 75.4722L757.172 68.7838C755.911 69.6118 753.51 70.312 749.383 70.312V78.312ZM761.515 75.5026C765.117 73.2102 766.799 69.5843 766.799 65.368H758.799C758.799 67.253 758.193 68.1338 757.22 68.7534L761.515 75.5026ZM766.799 65.368C766.799 61.2064 765.165 57.6147 761.682 55.2657C758.479 53.1058 754.179 52.32 749.383 52.32V60.32C753.531 60.32 755.939 61.0422 757.209 61.8983C758.198 62.5653 758.799 63.4976 758.799 65.368H766.799ZM749.383 52.32H729.727V60.32H749.383V52.32ZM725.727 56.32V74.312H733.727V56.32H725.727ZM729.727 78.312H749.383V70.312H729.727V78.312ZM802.699 38.432H798.699V50.8621L805.948 40.7648L802.699 38.432ZM810.499 32.296L808.96 28.6037L808.946 28.6095L808.932 28.6154L810.499 32.296ZM821.939 30.216H825.939V26.216H821.939V30.216ZM821.939 45.192L821.632 49.1802L825.939 49.5115V45.192H821.939ZM807.379 48.936L810.169 51.8019L810.188 51.7833L810.207 51.7644L807.379 48.936ZM803.427 87V91H807.427V87H803.427ZM787.203 87H783.203V91H787.203V87ZM787.203 31.048V27.048H783.203V31.048H787.203ZM802.699 31.048H806.699V27.048H802.699V31.048ZM805.948 40.7648C807.435 38.6941 809.435 37.0956 812.065 35.9766L808.932 28.6154C805.045 30.2697 801.845 32.7619 799.449 36.0992L805.948 40.7648ZM812.037 35.9883C814.793 34.8398 818.068 34.216 821.939 34.216V26.216C817.211 26.216 812.86 26.9788 808.96 28.6037L812.037 35.9883ZM817.939 30.216V45.192H825.939V30.216H817.939ZM822.245 41.2038C820.464 41.0668 819.1 40.984 818.299 40.984V48.984C818.745 48.984 819.807 49.0399 821.632 49.1802L822.245 41.2038ZM818.299 40.984C812.869 40.984 808.11 42.5474 804.55 46.1076L810.207 51.7644C811.916 50.0552 814.437 48.984 818.299 48.984V40.984ZM804.588 46.0701C800.906 49.655 799.427 54.7584 799.427 60.584H807.427C807.427 56.0096 808.581 53.3476 810.169 51.8019L804.588 46.0701ZM799.427 60.584V87H807.427V60.584H799.427ZM803.427 83H787.203V91H803.427V83ZM791.203 87V31.048H783.203V87H791.203ZM787.203 35.048H802.699V27.048H787.203V35.048ZM798.699 31.048V38.432H806.699V31.048H798.699ZM837.63 84.192L835.736 87.7156L835.767 87.7323L835.799 87.7485L837.63 84.192ZM826.71 73.896L823.284 75.962L823.284 75.962L826.71 73.896ZM826.71 44.152L823.284 42.086L823.284 42.086L826.71 44.152ZM837.63 33.96L839.482 37.5054L839.491 37.5003L839.501 37.4951L837.63 33.96ZM869.35 33.96L867.456 37.4836L867.477 37.4946L867.497 37.5054L869.35 33.96ZM880.27 44.152L883.695 42.086L883.695 42.086L880.27 44.152ZM880.27 73.896L883.695 75.962L883.695 75.962L880.27 73.896ZM869.35 84.192L871.202 87.7374L871.222 87.7266L871.243 87.7156L869.35 84.192ZM863.734 70.36L860.835 67.6031L860.834 67.605L863.734 70.36ZM863.734 47.792L860.8 50.5111L860.834 50.5482L860.87 50.5844L863.734 47.792ZM843.246 47.792L846.11 50.5844L846.127 50.5667L846.144 50.5489L843.246 47.792ZM843.246 70.36L840.347 73.1169L840.364 73.1347L840.382 73.1524L843.246 70.36ZM853.542 83.832C848.213 83.832 843.548 82.7394 839.46 80.6355L835.799 87.7485C841.141 90.4979 847.083 91.832 853.542 91.832V83.832ZM839.523 80.6684C835.487 78.5001 832.386 75.5622 830.135 71.83L823.284 75.962C826.303 80.9658 830.481 84.8919 835.736 87.7156L839.523 80.6684ZM830.135 71.83C827.909 68.1396 826.758 63.9083 826.758 59.024H818.758C818.758 65.233 820.241 70.9164 823.284 75.962L830.135 71.83ZM826.758 59.024C826.758 54.1397 827.909 49.9084 830.135 46.218L823.284 42.086C820.241 47.1316 818.758 52.815 818.758 59.024H826.758ZM830.135 46.218C832.38 42.4959 835.468 39.6023 839.482 37.5054L835.777 30.4146C830.501 33.1711 826.309 37.0721 823.284 42.086L830.135 46.218ZM839.501 37.4951C843.581 35.3354 848.231 34.216 853.542 34.216V26.216C847.065 26.216 841.108 27.5926 835.758 30.4248L839.501 37.4951ZM853.542 34.216C858.853 34.216 863.459 35.3357 867.456 37.4836L871.243 30.4364C865.95 27.5923 860.017 26.216 853.542 26.216V34.216ZM867.497 37.5054C871.511 39.6023 874.599 42.4959 876.844 46.218L883.695 42.086C880.67 37.0721 876.478 33.1711 871.202 30.4146L867.497 37.5054ZM876.844 46.218C879.07 49.9084 880.222 54.1397 880.222 59.024H888.222C888.222 52.815 886.738 47.1316 883.695 42.086L876.844 46.218ZM880.222 59.024C880.222 63.9083 879.07 68.1396 876.844 71.83L883.695 75.962C886.738 70.9164 888.222 65.233 888.222 59.024H880.222ZM876.844 71.83C874.593 75.5622 871.492 78.5001 867.456 80.6684L871.243 87.7156C876.498 84.8919 880.676 80.9658 883.695 75.962L876.844 71.83ZM867.497 80.6466C863.492 82.7391 858.871 83.832 853.542 83.832V91.832C859.999 91.832 865.917 90.4982 871.202 87.7374L867.497 80.6466ZM853.542 78.52C858.691 78.52 863.173 76.7574 866.634 73.115L860.834 67.605C859.024 69.5093 856.712 70.52 853.542 70.52V78.52ZM866.632 73.1169C870.181 69.3853 871.79 64.5452 871.79 59.024H863.79C863.79 62.9322 862.694 65.6494 860.835 67.6031L866.632 73.1169ZM871.79 59.024C871.79 53.5065 870.182 48.6761 866.598 44.9996L860.87 50.5844C862.693 52.4546 863.79 55.1122 863.79 59.024H871.79ZM866.667 45.0729C863.216 41.3488 858.724 39.528 853.542 39.528V47.528C856.679 47.528 858.982 48.5498 860.8 50.5111L866.667 45.0729ZM853.542 39.528C848.36 39.528 843.856 41.3467 840.347 45.0351L846.144 50.5489C848.043 48.552 850.403 47.528 853.542 47.528V39.528ZM840.382 44.9996C836.797 48.6761 835.19 53.5065 835.19 59.024H843.19C843.19 55.1122 844.286 52.4546 846.11 50.5844L840.382 44.9996ZM835.19 59.024C835.19 64.5452 836.798 69.3853 840.347 73.1169L846.144 67.6031C844.285 65.6494 843.19 62.9322 843.19 59.024H835.19ZM840.382 73.1524C843.898 76.7591 848.392 78.52 853.542 78.52V70.52C850.371 70.52 848.001 69.5076 846.11 67.5676L840.382 73.1524ZM979.239 31.048L982.999 32.411L984.943 27.048H979.239V31.048ZM958.959 87V91H961.763L962.719 88.363L958.959 87ZM943.359 87L939.598 88.3625L940.553 91H943.359V87ZM930.775 52.264L934.535 50.9015L930.836 40.6889L927.028 50.862L930.775 52.264ZM917.775 87V91H920.548L921.521 88.402L917.775 87ZM902.175 87L898.412 88.3569L899.365 91H902.175V87ZM881.999 31.048V27.048H876.304L878.236 32.4049L881.999 31.048ZM897.287 31.048L901.063 29.7303L900.127 27.048H897.287V31.048ZM910.495 68.904L906.718 70.2217L910.422 80.8378L914.255 70.2677L910.495 68.904ZM924.223 31.048V27.048H921.418L920.462 29.6843L924.223 31.048ZM937.951 31.048L941.724 29.7211L940.784 27.048H937.951V31.048ZM951.263 68.904L947.489 70.2309L951.219 80.8377L955.026 70.2585L951.263 68.904ZM964.887 31.048V27.048H962.075L961.123 29.6935L964.887 31.048ZM975.478 29.685L955.198 85.637L962.719 88.363L982.999 32.411L975.478 29.685ZM958.959 83H943.359V91H958.959V83ZM947.119 85.6375L934.535 50.9015L927.014 53.6264L939.598 88.3625L947.119 85.6375ZM927.028 50.862L914.028 85.598L921.521 88.402L934.521 53.666L927.028 50.862ZM917.775 83H902.175V91H917.775V83ZM905.937 85.6431L885.761 29.6911L878.236 32.4049L898.412 88.3569L905.937 85.6431ZM881.999 35.048H897.287V27.048H881.999V35.048ZM893.51 32.3657L906.718 70.2217L914.271 67.5863L901.063 29.7303L893.51 32.3657ZM914.255 70.2677L927.983 32.4116L920.462 29.6843L906.734 67.5403L914.255 70.2677ZM924.223 35.048H937.951V27.048H924.223V35.048ZM934.177 32.3749L947.489 70.2309L955.036 67.5771L941.724 29.7211L934.177 32.3749ZM955.026 70.2585L968.65 32.4025L961.123 29.6935L947.499 67.5495L955.026 70.2585ZM964.887 35.048H979.239V27.048H964.887V35.048ZM987.008 86.168L985.982 90.0339L986.01 90.0415L986.038 90.0486L987.008 86.168ZM976.4 81.8L972.772 80.1156L971.319 83.2452L974.202 85.1417L976.4 81.8ZM981.808 70.152L983.962 66.7812L980.107 64.3182L978.18 68.4676L981.808 70.152ZM990.856 74.104L989.728 77.9415L989.763 77.9517L989.798 77.9613L990.856 74.104ZM1008.74 67.032L1007.36 70.783L1007.36 70.783L1008.74 67.032ZM1000.11 65.264L999.513 69.2189L999.565 69.2267L999.616 69.2331L1000.11 65.264ZM988.776 62.872L989.934 59.0432L989.934 59.0432L988.776 62.872ZM980.976 58.088L978.061 60.8267L978.083 60.8498L978.105 60.8726L980.976 58.088ZM980.768 38.952L977.568 36.552L977.563 36.5586L977.559 36.5652L980.768 38.952ZM989.712 32.504L988.272 28.7723L988.261 28.7766L988.25 28.781L989.712 32.504ZM1015.4 31.568L1014.5 35.4644L1014.54 35.4737L1014.58 35.4822L1015.4 31.568ZM1025.18 35.104L1028.8 36.8009L1030.34 33.5184L1027.22 31.6659L1025.18 35.104ZM1019.77 46.648L1017.81 50.133L1021.56 52.2493L1023.39 48.3449L1019.77 46.648ZM995.848 43.944L993.894 40.454L993.894 40.454L995.848 43.944ZM996.056 51.328L997.446 47.577L997.446 47.577L996.056 51.328ZM1005 53.304L1005.66 49.3584L1005.63 49.3539L1005.6 49.3497L1005 53.304ZM1016.23 55.8L1015.05 59.6211L1015.09 59.6341L1015.13 59.6461L1016.23 55.8ZM1023.82 60.48L1020.91 63.2187L1020.91 63.2187L1023.82 60.48ZM1023.93 79.304L1027.1 81.7428L1027.1 81.7428L1023.93 79.304ZM1014.78 85.648L1016.16 89.4014L1016.18 89.3948L1016.2 89.388L1014.78 85.648ZM1000.63 83.832C996.309 83.832 992.094 83.3162 987.979 82.2874L986.038 90.0486C990.798 91.2385 995.665 91.832 1000.63 91.832V83.832ZM988.035 82.3021C983.842 81.1882 980.75 79.8737 978.599 78.4583L974.202 85.1417C977.32 87.1929 981.3 88.7904 985.982 90.0339L988.035 82.3021ZM980.028 83.4844L985.436 71.8364L978.18 68.4676L972.772 80.1156L980.028 83.4844ZM979.655 73.5228C982.535 75.363 985.914 76.8198 989.728 77.9415L991.985 70.2665C988.727 69.3082 986.074 68.1303 983.962 66.7812L979.655 73.5228ZM989.798 77.9613C993.651 79.0192 997.474 79.56 1001.26 79.56V71.56C998.244 71.56 995.134 71.1301 991.915 70.2467L989.798 77.9613ZM1001.26 79.56C1004.89 79.56 1008.21 79.1314 1010.75 77.8709C1012.08 77.213 1013.32 76.2674 1014.23 74.9279C1015.15 73.5614 1015.55 72.0217 1015.55 70.464H1007.55C1007.55 70.605 1007.53 70.5516 1007.59 70.4591C1007.64 70.3936 1007.59 70.5097 1007.2 70.7011C1006.32 71.1392 1004.49 71.56 1001.26 71.56V79.56ZM1015.55 70.464C1015.55 68.8214 1015.05 67.2219 1013.95 65.877C1012.9 64.5943 1011.51 63.7913 1010.13 63.281L1007.36 70.783C1007.59 70.8712 1007.72 70.9457 1007.78 70.9836C1007.84 71.0194 1007.81 71.0124 1007.75 70.9429C1007.69 70.8682 1007.63 70.7644 1007.59 70.6461C1007.55 70.5318 1007.55 70.4608 1007.55 70.464H1015.55ZM1010.13 63.281C1007.82 62.4223 1004.56 61.7893 1000.61 61.2949L999.616 69.2331C1003.43 69.7093 1005.93 70.255 1007.36 70.783L1010.13 63.281ZM1000.71 61.3091C996.243 60.6321 992.668 59.8696 989.934 59.0432L987.619 66.7008C990.848 67.677 994.83 68.5092 999.513 69.2189L1000.71 61.3091ZM989.934 59.0432C987.619 58.3433 985.605 57.1152 983.848 55.3034L978.105 60.8726C980.785 63.6368 983.971 65.598 987.619 66.7008L989.934 59.0432ZM983.892 55.3493C982.652 54.0295 981.752 51.884 981.752 48.312H973.752C973.752 53.1986 975.002 57.5705 978.061 60.8267L983.892 55.3493ZM981.752 48.312C981.752 45.5905 982.507 43.3173 983.978 41.3388L977.559 36.5652C975.008 39.9947 973.752 43.9615 973.752 48.312H981.752ZM983.968 41.352C985.52 39.283 987.842 37.5365 991.175 36.227L988.25 28.781C983.818 30.5221 980.177 33.0743 977.568 36.552L983.968 41.352ZM991.153 36.2357C994.543 34.9272 998.679 34.216 1003.65 34.216V26.216C997.94 26.216 992.786 27.0301 988.272 28.7723L991.153 36.2357ZM1003.65 34.216C1007.29 34.216 1010.91 34.6313 1014.5 35.4644L1016.3 27.6716C1012.13 26.702 1007.91 26.216 1003.65 26.216V34.216ZM1014.58 35.4822C1018.24 36.2535 1021.05 37.3051 1023.13 38.5421L1027.22 31.6659C1024.17 29.8522 1020.47 28.5465 1016.22 27.6538L1014.58 35.4822ZM1021.55 33.4071L1016.15 44.9511L1023.39 48.3449L1028.8 36.8009L1021.55 33.4071ZM1021.73 43.163C1016.19 40.0414 1010.14 38.488 1003.65 38.488V46.488C1008.81 46.488 1013.5 47.708 1017.81 50.133L1021.73 43.163ZM1003.65 38.488C999.94 38.488 996.518 38.9845 993.894 40.454L997.803 47.434C998.645 46.9622 1000.42 46.488 1003.65 46.488V38.488ZM993.894 40.454C991.339 41.885 989.248 44.2715 989.248 47.688H997.248C997.248 47.6873 997.248 47.6979 997.245 47.7178C997.243 47.7378 997.237 47.7623 997.229 47.7891C997.211 47.8477 997.188 47.8833 997.184 47.8896C997.181 47.8931 997.309 47.7104 997.803 47.434L993.894 40.454ZM989.248 47.688C989.248 49.3169 989.705 50.9439 990.783 52.3412C991.829 53.6967 993.237 54.5492 994.667 55.079L997.446 47.577C997.229 47.4967 997.117 47.4298 997.075 47.4013C997.037 47.3757 997.066 47.3885 997.118 47.4548C997.142 47.4865 997.167 47.5241 997.188 47.566C997.21 47.6079 997.226 47.6469 997.236 47.6795C997.258 47.7471 997.248 47.7596 997.248 47.688H989.248ZM994.667 55.079C996.941 55.9213 1000.26 56.6271 1004.4 57.2583L1005.6 49.3497C1001.56 48.7329 998.916 48.1214 997.446 47.577L994.667 55.079ZM1004.34 57.2496C1008.82 57.9962 1012.37 58.7929 1015.05 59.6211L1017.42 51.9789C1014.27 51.0044 1010.33 50.1371 1005.66 49.3584L1004.34 57.2496ZM1015.13 59.6461C1017.33 60.2722 1019.24 61.4369 1020.91 63.2187L1026.74 57.7413C1024.11 54.9471 1020.96 52.9917 1017.33 51.9539L1015.13 59.6461ZM1020.91 63.2187C1022.17 64.5617 1023.05 66.6568 1023.05 70.048H1031.05C1031.05 65.2579 1029.78 60.9743 1026.74 57.7413L1020.91 63.2187ZM1023.05 70.048C1023.05 72.6479 1022.29 74.8725 1020.76 76.8652L1027.1 81.7428C1029.73 78.3275 1031.05 74.3814 1031.05 70.048H1023.05ZM1020.76 76.8652C1019.23 78.8461 1016.87 80.5777 1013.36 81.908L1016.2 89.388C1020.73 87.6677 1024.46 85.1699 1027.1 81.7428L1020.76 76.8652ZM1013.39 81.8946C1010 83.1467 1005.77 83.832 1000.63 83.832V91.832C1006.45 91.832 1011.65 91.0613 1016.16 89.4014L1013.39 81.8946ZM1087.39 63.6V67.6H1091.1L1091.38 63.9068L1087.39 63.6ZM1045.07 63.6V59.6H1040.09L1041.16 64.4594L1045.07 63.6ZM1050.47 71.816L1052.78 68.5503L1052.78 68.5503L1050.47 71.816ZM1068.78 73.584L1070.18 77.3293L1070.21 77.3177L1070.24 77.3056L1068.78 73.584ZM1075.12 69.424L1078.06 66.7122L1075.29 63.7056L1072.35 66.5446L1075.12 69.424ZM1083.75 78.784L1086.77 81.4156L1089.13 78.7116L1086.69 76.0722L1083.75 78.784ZM1043.92 84.192L1042.09 87.7492L1042.11 87.7595L1042.13 87.7697L1043.92 84.192ZM1032.69 73.896L1029.27 75.962L1029.27 75.962L1032.69 73.896ZM1032.59 44.256L1029.15 42.2138L1029.14 42.2221L1029.14 42.2303L1032.59 44.256ZM1043.3 33.96L1045.19 37.4819L1045.2 37.4768L1045.21 37.4716L1043.3 33.96ZM1073.46 33.752L1075.34 30.2195L1075.34 30.2195L1073.46 33.752ZM1083.86 43.944L1080.37 45.905L1080.39 45.9375L1080.41 45.9697L1083.86 43.944ZM1049.43 45.608L1046.87 42.5351L1046.87 42.5351L1049.43 45.608ZM1044.86 54.136L1040.9 53.5278L1040.2 58.136H1044.86V54.136ZM1072.42 54.136V58.136H1077.09L1076.37 53.5161L1072.42 54.136ZM1067.84 45.712L1065.23 48.7431L1065.26 48.7642L1065.28 48.7849L1067.84 45.712ZM1083.71 59.232C1083.71 59.1308 1083.71 59.1177 1083.69 59.3725C1083.68 59.5631 1083.66 59.8355 1083.64 60.195C1083.59 60.912 1083.51 61.9435 1083.41 63.2932L1091.38 63.9068C1091.58 61.351 1091.71 59.6428 1091.71 59.232H1083.71ZM1087.39 59.6H1045.07V67.6H1087.39V59.6ZM1041.16 64.4594C1042.13 68.8781 1044.49 72.4835 1048.16 75.0817L1052.78 68.5503C1050.77 67.1272 1049.53 65.2552 1048.97 62.7406L1041.16 64.4594ZM1048.16 75.0817C1051.82 77.6648 1056.21 78.832 1061.08 78.832V70.832C1057.5 70.832 1054.82 69.9885 1052.78 68.5503L1048.16 75.0817ZM1061.08 78.832C1064.37 78.832 1067.43 78.3634 1070.18 77.3293L1067.37 69.8387C1065.69 70.4686 1063.62 70.832 1061.08 70.832V78.832ZM1070.24 77.3056C1073.07 76.1943 1075.62 74.5039 1077.9 72.3034L1072.35 66.5446C1070.75 68.088 1069.07 69.171 1067.31 69.8624L1070.24 77.3056ZM1072.18 72.1358L1080.81 81.4958L1086.69 76.0722L1078.06 66.7122L1072.18 72.1358ZM1080.74 76.1524C1076.42 81.0952 1069.96 83.832 1060.67 83.832V91.832C1071.62 91.832 1080.55 88.5368 1086.77 81.4156L1080.74 76.1524ZM1060.67 83.832C1054.88 83.832 1049.93 82.7214 1045.71 80.6143L1042.13 87.7697C1047.63 90.516 1053.84 91.832 1060.67 91.832V83.832ZM1045.75 80.6348C1041.51 78.4536 1038.34 75.5178 1036.12 71.83L1029.27 75.962C1032.31 81.0102 1036.63 84.9384 1042.09 87.7492L1045.75 80.6348ZM1036.12 71.83C1033.89 68.1396 1032.74 63.9083 1032.74 59.024H1024.74C1024.74 65.233 1026.22 70.9164 1029.27 75.962L1036.12 71.83ZM1032.74 59.024C1032.74 54.1991 1033.86 49.9859 1036.04 46.2817L1029.14 42.2303C1026.18 47.2621 1024.74 52.8943 1024.74 59.024H1032.74ZM1036.03 46.2982C1038.29 42.4795 1041.33 39.5615 1045.19 37.4819L1041.4 30.4381C1036.25 33.2119 1032.15 37.1578 1029.15 42.2138L1036.03 46.2982ZM1045.21 37.4716C1049.16 35.3206 1053.59 34.216 1058.59 34.216V26.216C1052.35 26.216 1046.59 27.6074 1041.38 30.4484L1045.21 37.4716ZM1058.59 34.216C1063.47 34.216 1067.77 35.2612 1071.58 37.2845L1075.34 30.2195C1070.27 27.5281 1064.66 26.216 1058.59 26.216V34.216ZM1071.58 37.2845C1075.33 39.2777 1078.25 42.1253 1080.37 45.905L1087.34 41.983C1084.48 36.888 1080.46 32.9409 1075.34 30.2195L1071.58 37.2845ZM1080.41 45.9697C1082.56 49.6364 1083.71 54.0119 1083.71 59.232H1091.71C1091.71 52.8041 1090.28 46.9876 1087.31 41.9183L1080.41 45.9697ZM1058.69 38.488C1054.21 38.488 1050.18 39.7778 1046.87 42.5351L1052 48.6809C1053.68 47.2782 1055.82 46.488 1058.69 46.488V38.488ZM1046.87 42.5351C1043.54 45.3169 1041.59 49.0854 1040.9 53.5278L1048.81 54.7442C1049.24 51.976 1050.34 50.0591 1052 48.6809L1046.87 42.5351ZM1044.86 58.136H1072.42V50.136H1044.86V58.136ZM1076.37 53.5161C1075.68 49.1257 1073.72 45.4057 1070.4 42.6391L1065.28 48.7849C1066.95 50.1783 1068.05 52.0743 1068.47 54.7559L1076.37 53.5161ZM1070.45 42.6809C1067.16 39.8457 1063.16 38.488 1058.69 38.488V46.488C1061.44 46.488 1063.53 47.2796 1065.23 48.7431L1070.45 42.6809ZM1109.84 38.432H1105.84V50.8621L1113.09 40.7648L1109.84 38.432ZM1117.64 32.296L1116.11 28.6037L1116.09 28.6095L1116.08 28.6154L1117.64 32.296ZM1129.08 30.216H1133.08V26.216H1129.08V30.216ZM1129.08 45.192L1128.78 49.1802L1133.08 49.5115V45.192H1129.08ZM1114.52 48.936L1117.31 51.8019L1117.33 51.7833L1117.35 51.7644L1114.52 48.936ZM1110.57 87V91H1114.57V87H1110.57ZM1094.35 87H1090.35V91H1094.35V87ZM1094.35 31.048V27.048H1090.35V31.048H1094.35ZM1109.84 31.048H1113.84V27.048H1109.84V31.048ZM1113.09 40.7648C1114.58 38.6941 1116.58 37.0956 1119.21 35.9766L1116.08 28.6154C1112.19 30.2697 1108.99 32.7619 1106.59 36.0992L1113.09 40.7648ZM1119.18 35.9883C1121.94 34.8398 1125.21 34.216 1129.08 34.216V26.216C1124.36 26.216 1120.01 26.9788 1116.11 28.6037L1119.18 35.9883ZM1125.08 30.216V45.192H1133.08V30.216H1125.08ZM1129.39 41.2038C1127.61 41.0668 1126.25 40.984 1125.44 40.984V48.984C1125.89 48.984 1126.95 49.0399 1128.78 49.1802L1129.39 41.2038ZM1125.44 40.984C1120.01 40.984 1115.26 42.5474 1111.7 46.1076L1117.35 51.7644C1119.06 50.0552 1121.58 48.984 1125.44 48.984V40.984ZM1111.73 46.0701C1108.05 49.655 1106.57 54.7584 1106.57 60.584H1114.57C1114.57 56.0096 1115.73 53.3476 1117.31 51.8019L1111.73 46.0701ZM1106.57 60.584V87H1114.57V60.584H1106.57ZM1110.57 83H1094.35V91H1110.57V83ZM1098.35 87V31.048H1090.35V87H1098.35ZM1094.35 35.048H1109.84V27.048H1094.35V35.048ZM1105.84 31.048V38.432H1113.84V31.048H1105.84Z" fill="white"/>
</g>
<defs>
<linearGradient id="paint0_linear" x1="165.17" y1="33.092" x2="152.442" y2="20.3641" gradientUnits="userSpaceOnUse">
<stop stop-color="#033049"/>
<stop offset="1" stop-color="#00C2FF"/>
</linearGradient>
<clipPath id="clip0">
<rect width="1299" height="95" fill="white"/>
</clipPath>
</defs>
</svg>
