<svg width="647" height="74" viewBox="0 0 647 74" fill="none" xmlns="http://www.w3.org/2000/svg">
<path d="M57.512 57.4H23.712L17.264 73H0L32.448 0.199951H49.088L81.64 73H63.96L57.512 57.4ZM52.208 44.608L40.664 16.736L29.12 44.608H52.208Z" fill="white"/>
<path d="M119.469 70.296C117.875 71.4746 115.899 72.376 113.541 73C111.253 73.5546 108.827 73.832 106.261 73.832C99.6052 73.832 94.4398 72.1333 90.7652 68.736C87.1598 65.3386 85.3572 60.3466 85.3572 53.76V30.776H76.7252V18.296H85.3572V4.67196H101.581V18.296H115.517V30.776H101.581V53.552C101.581 55.9093 102.171 57.7466 103.349 59.064C104.597 60.312 106.331 60.936 108.549 60.936C111.115 60.936 113.299 60.2426 115.101 58.856L119.469 70.296Z" fill="white"/>
<path d="M258.334 16.216C265.337 16.216 270.884 18.296 274.974 22.456C279.134 26.5466 281.214 32.7173 281.214 40.9679V73H264.99V43.464C264.99 39.0266 264.054 35.7333 262.182 33.584C260.38 31.3653 257.78 30.256 254.382 30.256C250.569 30.256 247.553 31.504 245.334 34C243.116 36.4266 242.006 40.0666 242.006 44.92V73H225.782V43.464C225.782 34.6586 222.246 30.256 215.174 30.256C211.43 30.256 208.449 31.504 206.23 34C204.012 36.4266 202.902 40.0666 202.902 44.92V73H186.678V17.048H202.174V23.496C204.254 21.1386 206.785 19.336 209.766 18.088C212.817 16.84 216.145 16.216 219.75 16.216C223.702 16.216 227.273 17.0133 230.462 18.608C233.652 20.1333 236.217 22.3866 238.158 25.368C240.446 22.456 243.324 20.2026 246.79 18.608C250.326 17.0133 254.174 16.216 258.334 16.216Z" fill="white"/>
<path d="M291.596 17.048H307.82V73H291.596V17.048Z" fill="white"/>
<path d="M345.758 73.832C339.795 73.832 334.422 72.6186 329.638 70.192C324.923 67.696 321.214 64.264 318.51 59.896C315.875 55.528 314.558 50.5706 314.558 45.0239C314.558 39.4773 315.875 34.52 318.51 30.152C321.214 25.784 324.923 22.3866 329.638 19.96C334.422 17.464 339.795 16.216 345.758 16.216C351.651 16.216 356.782 17.464 361.15 19.96C365.587 22.3866 368.811 25.888 370.822 30.464L358.238 37.224C355.326 32.0933 351.131 29.528 345.654 29.528C341.424 29.528 337.923 30.9146 335.15 33.688C332.376 36.4613 330.99 40.2399 330.99 45.0239C330.99 49.808 332.376 53.5866 335.15 56.36C337.923 59.1333 341.424 60.52 345.654 60.52C351.2 60.52 355.395 57.9546 358.238 52.824L370.822 59.688C368.811 64.1253 365.587 67.592 361.15 70.088C356.782 72.584 351.651 73.832 345.758 73.832Z" fill="white"/>
<path fill-rule="evenodd" clip-rule="evenodd" d="M137.633 16.5725C139.483 21.4964 144.235 25 149.806 25C155.376 25 160.128 21.4964 161.979 16.5725C172.482 21.241 179.806 31.7652 179.806 44C179.806 60.5685 166.374 74 149.806 74C133.237 74 119.806 60.5685 119.806 44C119.806 31.7652 127.13 21.241 137.633 16.5725ZM141.39 15.1965C142.679 18.589 145.961 21 149.806 21C153.65 21 156.932 18.589 158.221 15.1965C155.551 14.4176 152.727 14 149.806 14C146.884 14 144.06 14.4176 141.39 15.1965ZM163.806 44C163.806 51.732 157.538 58 149.806 58C142.074 58 135.806 51.732 135.806 44C135.806 36.268 142.074 30 149.806 30C157.538 30 163.806 36.268 163.806 44Z" fill="white"/>
<path d="M143.442 18.364C139.927 14.8492 139.927 9.15076 143.442 5.63604C146.956 2.12132 152.655 2.12132 156.17 5.63604C157.784 7.25001 158.656 9.32448 158.788 11.4365C158.943 13.9238 158.07 16.4632 156.17 18.364C152.655 21.8787 146.956 21.8787 143.442 18.364Z" fill="url(#paint0_linear)"/>
<path d="M415.806 0.199951H448.878C456.782 0.199951 463.75 1.72528 469.782 4.77595C475.883 7.75729 480.598 11.9866 483.926 17.464C487.323 22.9413 489.022 29.32 489.022 36.6C489.022 43.88 487.323 50.2586 483.926 55.736C480.598 61.2133 475.883 65.4773 469.782 68.528C463.75 71.5093 456.782 73 448.878 73H415.806V0.199951ZM448.046 59.168C455.326 59.168 461.115 57.1573 465.414 53.136C469.782 49.0453 471.966 43.5333 471.966 36.6C471.966 29.6666 469.782 24.1893 465.414 20.168C461.115 16.0773 455.326 14.032 448.046 14.032H432.654V59.168H448.046Z" fill="white"/>
<path d="M518.992 16.216C527.658 16.216 534.314 18.296 538.96 22.456C543.605 26.5466 545.928 32.752 545.928 41.072V73H530.744V66.032C527.693 71.232 522.008 73.832 513.688 73.832C509.389 73.832 505.645 73.104 502.456 71.648C499.336 70.192 496.944 68.1813 495.28 65.616C493.616 63.0506 492.784 60.1386 492.784 56.88C492.784 51.68 494.725 47.5893 498.608 44.608C502.56 41.6266 508.626 40.136 516.808 40.136H529.704C529.704 36.6 528.629 33.896 526.48 32.024C524.33 30.0826 521.106 29.112 516.808 29.112C513.826 29.112 510.88 29.5973 507.968 30.568C505.125 31.4693 502.698 32.7173 500.688 34.312L494.864 22.976C497.914 20.8266 501.554 19.1626 505.784 17.9839C510.082 16.8053 514.485 16.216 518.992 16.216ZM517.744 62.912C520.517 62.912 522.978 62.288 525.128 61.04C527.277 59.7226 528.802 57.816 529.704 55.32V49.6H518.576C511.92 49.6 508.592 51.784 508.592 56.152C508.592 58.232 509.389 59.896 510.984 61.144C512.648 62.3226 514.901 62.912 517.744 62.912Z" fill="white"/>
<path d="M592.539 70.296C590.944 71.4746 588.968 72.376 586.611 73C584.323 73.5546 581.896 73.832 579.331 73.832C572.675 73.832 567.51 72.1333 563.835 68.736C560.23 65.3386 558.427 60.3466 558.427 53.76V30.776H549.795V18.296H558.427V4.67196H574.651V18.296H588.587V30.776H574.651V53.552C574.651 55.9093 575.24 57.7466 576.419 59.064C577.667 60.312 579.4 60.936 581.619 60.936C584.184 60.936 586.368 60.2426 588.171 58.856L592.539 70.296Z" fill="white"/>
<path d="M620.054 16.216C628.721 16.216 635.377 18.296 640.022 22.456C644.668 26.5466 646.99 32.752 646.99 41.072V73H631.806V66.032C628.756 71.232 623.07 73.832 614.75 73.832C610.452 73.832 606.708 73.104 603.518 71.648C600.398 70.192 598.006 68.1813 596.342 65.616C594.678 63.0506 593.846 60.1386 593.846 56.88C593.846 51.68 595.788 47.5893 599.67 44.608C603.622 41.6266 609.689 40.136 617.87 40.136H630.766C630.766 36.6 629.692 33.896 627.542 32.024C625.393 30.0826 622.169 29.112 617.87 29.112C614.889 29.112 611.942 29.5973 609.03 30.568C606.188 31.4693 603.761 32.7173 601.75 34.312L595.926 22.976C598.977 20.8266 602.617 19.1626 606.846 17.9839C611.145 16.8053 615.548 16.216 620.054 16.216ZM618.806 62.912C621.58 62.912 624.041 62.288 626.19 61.04C628.34 59.7226 629.865 57.816 630.766 55.32V49.6H619.638C612.982 49.6 609.654 51.784 609.654 56.152C609.654 58.232 610.452 59.896 612.046 61.144C613.71 62.3226 615.964 62.912 618.806 62.912Z" fill="white"/>
<defs>
<linearGradient id="paint0_linear" x1="156.17" y1="18.364" x2="143.442" y2="5.63604" gradientUnits="userSpaceOnUse">
<stop stop-color="#033049"/>
<stop offset="1" stop-color="#00C2FF"/>
</linearGradient>
</defs>
</svg>
