<svg width="665" height="113" viewBox="0 0 665 113" fill="none" xmlns="http://www.w3.org/2000/svg">
<path d="M64.512 76.4H30.712L24.264 92H7L39.448 19.2H56.088L88.64 92H70.96L64.512 76.4ZM59.208 63.608L47.664 35.736L36.12 63.608H59.208Z" fill="white"/>
<path d="M126.469 89.296C124.875 90.4746 122.899 91.376 120.541 92C118.253 92.5546 115.827 92.832 113.261 92.832C106.605 92.832 101.44 91.1333 97.7652 87.736C94.1598 84.3386 92.3572 79.3466 92.3572 72.76V49.776H83.7252V37.296H92.3572V23.672H108.581V37.296H122.517V49.776H108.581V72.552C108.581 74.9093 109.171 76.7466 110.349 78.064C111.597 79.312 113.331 79.936 115.549 79.936C118.115 79.936 120.299 79.2426 122.101 77.856L126.469 89.296Z" fill="white"/>
<path d="M265.334 35.216C272.337 35.216 277.884 37.296 281.974 41.456C286.134 45.5466 288.214 51.7173 288.214 59.9679V92H271.99V62.464C271.99 58.0266 271.054 54.7333 269.182 52.584C267.38 50.3653 264.78 49.256 261.382 49.256C257.569 49.256 254.553 50.504 252.334 53C250.116 55.4266 249.006 59.0666 249.006 63.92V92H232.782V62.464C232.782 53.6586 229.246 49.256 222.174 49.256C218.43 49.256 215.449 50.504 213.23 53C211.012 55.4266 209.902 59.0666 209.902 63.92V92H193.678V36.048H209.174V42.496C211.254 40.1386 213.785 38.336 216.766 37.088C219.817 35.84 223.145 35.216 226.75 35.216C230.702 35.216 234.273 36.0133 237.462 37.608C240.652 39.1333 243.217 41.3866 245.158 44.368C247.446 41.456 250.324 39.2026 253.79 37.608C257.326 36.0133 261.174 35.216 265.334 35.216Z" fill="white"/>
<path d="M298.596 36.048H314.82V92H298.596V36.048Z" fill="white"/>
<path d="M352.758 92.832C346.795 92.832 341.422 91.6186 336.638 89.192C331.923 86.696 328.214 83.264 325.51 78.896C322.875 74.528 321.558 69.5706 321.558 64.0239C321.558 58.4773 322.875 53.52 325.51 49.152C328.214 44.784 331.923 41.3866 336.638 38.96C341.422 36.464 346.795 35.216 352.758 35.216C358.651 35.216 363.782 36.464 368.15 38.96C372.587 41.3866 375.811 44.888 377.822 49.464L365.238 56.224C362.326 51.0933 358.131 48.528 352.654 48.528C348.424 48.528 344.923 49.9146 342.15 52.688C339.376 55.4613 337.99 59.2399 337.99 64.0239C337.99 68.808 339.376 72.5866 342.15 75.36C344.923 78.1333 348.424 79.52 352.654 79.52C358.2 79.52 362.395 76.9546 365.238 71.824L377.822 78.688C375.811 83.1253 372.587 86.592 368.15 89.088C363.782 91.584 358.651 92.832 352.758 92.832Z" fill="white"/>
<path fill-rule="evenodd" clip-rule="evenodd" d="M144.633 35.5725C146.483 40.4964 151.235 44 156.806 44C162.376 44 167.128 40.4964 168.979 35.5725C179.482 40.241 186.806 50.7652 186.806 63C186.806 79.5685 173.374 93 156.806 93C140.237 93 126.806 79.5685 126.806 63C126.806 50.7652 134.13 40.241 144.633 35.5725ZM148.39 34.1965C149.679 37.589 152.961 40 156.806 40C160.65 40 163.932 37.589 165.221 34.1965C162.551 33.4176 159.727 33 156.806 33C153.884 33 151.06 33.4176 148.39 34.1965ZM170.806 63C170.806 70.732 164.538 77 156.806 77C149.074 77 142.806 70.732 142.806 63C142.806 55.268 149.074 49 156.806 49C164.538 49 170.806 55.268 170.806 63Z" fill="white"/>
<path d="M150.442 37.364C146.927 33.8492 146.927 28.1508 150.442 24.636C153.957 21.1213 159.655 21.1213 163.17 24.636C164.784 26.25 165.657 28.3245 165.788 30.4365C165.943 32.9238 165.07 35.4632 163.17 37.364C159.655 40.8787 153.957 40.8787 150.442 37.364Z" fill="url(#paint0_linear)"/>
<path d="M422.806 18.2H455.878C463.782 18.2 470.75 19.7253 476.782 22.776C482.883 25.7573 487.598 29.9866 490.926 35.464C494.323 40.9413 496.022 47.32 496.022 54.6C496.022 61.88 494.323 68.2586 490.926 73.736C487.598 79.2133 482.883 83.4773 476.782 86.528C470.75 89.5093 463.782 91 455.878 91H422.806V18.2ZM455.046 77.168C462.326 77.168 468.115 75.1573 472.414 71.136C476.782 67.0453 478.966 61.5333 478.966 54.6C478.966 47.6666 476.782 42.1893 472.414 38.168C468.115 34.0773 462.326 32.032 455.046 32.032H439.654V77.168H455.046Z" fill="white"/>
<path d="M525.992 34.216C534.658 34.216 541.314 36.296 545.96 40.456C550.605 44.5466 552.928 50.752 552.928 59.072V91H537.744V84.032C534.693 89.232 529.008 91.832 520.688 91.832C516.389 91.832 512.645 91.104 509.456 89.648C506.336 88.192 503.944 86.1813 502.28 83.616C500.616 81.0506 499.784 78.1386 499.784 74.88C499.784 69.68 501.725 65.5893 505.608 62.608C509.56 59.6266 515.626 58.136 523.808 58.136H536.704C536.704 54.6 535.629 51.896 533.48 50.024C531.33 48.0826 528.106 47.112 523.808 47.112C520.826 47.112 517.88 47.5973 514.968 48.568C512.125 49.4693 509.698 50.7173 507.688 52.312L501.864 40.976C504.914 38.8266 508.554 37.1626 512.784 35.9839C517.082 34.8053 521.485 34.216 525.992 34.216ZM524.744 80.912C527.517 80.912 529.978 80.288 532.128 79.04C534.277 77.7226 535.802 75.816 536.704 73.32V67.6H525.576C518.92 67.6 515.592 69.784 515.592 74.152C515.592 76.232 516.389 77.896 517.984 79.144C519.648 80.3226 521.901 80.912 524.744 80.912Z" fill="white"/>
<path d="M599.539 88.296C597.944 89.4746 595.968 90.376 593.611 91C591.323 91.5546 588.896 91.832 586.331 91.832C579.675 91.832 574.51 90.1333 570.835 86.736C567.23 83.3386 565.427 78.3466 565.427 71.76V48.776H556.795V36.296H565.427V22.672H581.651V36.296H595.587V48.776H581.651V71.552C581.651 73.9093 582.24 75.7466 583.419 77.064C584.667 78.312 586.4 78.936 588.619 78.936C591.184 78.936 593.368 78.2426 595.171 76.856L599.539 88.296Z" fill="white"/>
<path d="M627.054 34.216C635.721 34.216 642.377 36.296 647.022 40.456C651.668 44.5466 653.99 50.752 653.99 59.072V91H638.806V84.032C635.756 89.232 630.07 91.832 621.75 91.832C617.452 91.832 613.708 91.104 610.518 89.648C607.398 88.192 605.006 86.1813 603.342 83.616C601.678 81.0506 600.846 78.1386 600.846 74.88C600.846 69.68 602.788 65.5893 606.67 62.608C610.622 59.6266 616.689 58.136 624.87 58.136H637.766C637.766 54.6 636.692 51.896 634.542 50.024C632.393 48.0826 629.169 47.112 624.87 47.112C621.889 47.112 618.942 47.5973 616.03 48.568C613.188 49.4693 610.761 50.7173 608.75 52.312L602.926 40.976C605.977 38.8266 609.617 37.1626 613.846 35.9839C618.145 34.8053 622.548 34.216 627.054 34.216ZM625.806 80.912C628.58 80.912 631.041 80.288 633.19 79.04C635.34 77.7226 636.865 75.816 637.766 73.32V67.6H626.638C619.982 67.6 616.654 69.784 616.654 74.152C616.654 76.232 617.452 77.896 619.046 79.144C620.71 80.3226 622.964 80.912 625.806 80.912Z" fill="white"/>
<defs>
<linearGradient id="paint0_linear" x1="163.17" y1="37.364" x2="150.442" y2="24.636" gradientUnits="userSpaceOnUse">
<stop stop-color="#033049"/>
<stop offset="1" stop-color="#00C2FF"/>
</linearGradient>
</defs>
</svg>
